<svg width="16" height="16" viewBox="0 0 16 16" fill="none" xmlns="http://www.w3.org/2000/svg">
<g clip-path="url(#clip0_11_72)">
<path d="M11.5 0H10.6667H5.33332H4.49999C3.48866 0 2.66666 0.822 2.66666 1.83333V14.1667C2.66666 15.178 3.48866 16 4.49999 16H11.5C12.5113 16 13.3333 15.178 13.3333 14.1667V1.83333C13.3333 0.822 12.5113 0 11.5 0ZM12 14C12 14.368 11.7013 14.6667 11.3333 14.6667H4.66666C4.29866 14.6667 3.99999 14.368 3.99999 14V2C3.99999 1.632 4.29866 1.33333 4.66666 1.33333H4.99999C5.36799 1.33333 5.66666 1.632 5.66666 2C5.66666 2.368 5.96532 2.66667 6.33332 2.66667H9.66666C10.0347 2.66667 10.3333 2.368 10.3333 2C10.3333 1.632 10.632 1.33333 11 1.33333H11.3333C11.7013 1.33333 12 1.632 12 2V14Z" fill="#6D698C"/>
</g>
<defs>
<clipPath id="clip0_11_72">
<rect width="16" height="16" fill="white"/>
</clipPath>
</defs>
</svg>
