<svg xmlns="http://www.w3.org/2000/svg" width="86" height="64" viewBox="0 0 86 64"><g><g><path fill="#3172b9" d="M79.622 20.272c0 2.064-.306 4.08-.896 5.998h5.142c1.177 0 2.132.957 2.132 2.136 0 1.18-.955 2.135-2.132 2.135H77.47c-.202 0-.397-.028-.582-.08a20.38 20.38 0 0 1-3.196 4.145L44.972 63.374a2.13 2.13 0 0 1-3.017 0L13.233 34.606a20.266 20.266 0 0 1-2.747-3.42c-.171.044-.35.068-.536.068H2.132A2.134 2.134 0 0 1 0 29.118c0-1.18.955-2.136 2.132-2.136h6.315c-2.482-7.121-.887-15.364 4.786-21.044A20.089 20.089 0 0 1 27.544 0c5.406 0 10.49 2.109 14.312 5.938l1.607 1.609 1.607-1.61A20.089 20.089 0 0 1 59.382 0a20.09 20.09 0 0 1 14.311 5.938 20.154 20.154 0 0 1 5.929 14.334zM70.678 8.957A15.86 15.86 0 0 0 59.38 4.271a15.86 15.86 0 0 0-11.296 4.686l-3.115 3.12a2.128 2.128 0 0 1-3.015 0l-3.114-3.12a15.862 15.862 0 0 0-11.297-4.686 15.857 15.857 0 0 0-11.296 4.686c-5.074 5.083-6.015 12.761-2.822 18.806h14.811l5.302-11.284c.245-.52.739-.845 1.353-.816a1.422 1.422 0 0 1 1.27.938l7.89 21.886 6.491-18.319a1.42 1.42 0 0 1 2.633-.112l3.176 6.995h17.501c2.76-5.926 1.702-13.209-3.175-18.094zm-54.43 22.629l27.215 27.258 27.215-27.258a16.061 16.061 0 0 0 1.517-1.756H55.736c-.557 0-1.363-.257-1.593-.766l-2.097-4.62-6.642 18.745c-.2.566-.734.946-1.335.947h-.003c-.6 0-1.133-.376-1.337-.94l-8.076-22.398-4.227 8.996c-.234.498-.436.747-.987.747H15.293c.3.36.619.708.955 1.045z"/></g></g></svg>