<svg xmlns="http://www.w3.org/2000/svg" width="68" height="66" viewBox="0 0 68 66"><g><g><path fill="#3172b9" d="M50.393.004C40.438-.212 32.146 7.638 31.9 17.512l-.124 4.971c-.034 1.356 1.057 2.49 2.424 2.52 1.367.029 2.513-1.056 2.546-2.412l.125-4.971c.178-7.149 6.191-12.842 13.4-12.686 7.207.157 12.93 6.104 12.752 13.253-.179 7.148-6.192 12.842-13.4 12.685L18.5 30.197C8.545 29.981.253 37.831.007 47.705c-.247 9.874 7.644 18.075 17.6 18.29 9.955.216 18.247-7.633 18.493-17.507l.123-4.916c.034-1.357-1.057-2.49-2.424-2.52-1.367-.03-2.513 1.056-2.547 2.412l-.123 4.916c-.178 7.149-6.191 12.842-13.4 12.686-7.207-.157-12.93-6.104-12.752-13.253.179-7.149 6.192-12.842 13.4-12.686l31.123.675c9.956.216 18.247-7.633 18.494-17.507C68.24 8.42 60.349.22 50.394.005z"/></g></g></svg>