<svg xmlns="http://www.w3.org/2000/svg" width="64" height="64" viewBox="0 0 64 64"><g><g><path fill="#3172b9" d="M63.81 15.073L53.332 48.146l.247.78a3.973 3.973 0 0 1-.262 3.05c-.393.756-1 1.353-1.747 1.728l-.009.033-2.367 7.47a4.007 4.007 0 0 1-5.02 2.606L32 59.957l-12.174 3.856a4.007 4.007 0 0 1-5.02-2.606L.188 15.074a3.974 3.974 0 0 1 .263-3.05 3.972 3.972 0 0 1 2.343-1.972L33.943.187a4.005 4.005 0 0 1 5.02 2.605l.077.242c.009.002.018.003.026.006l22.14 7.013a3.974 3.974 0 0 1 2.342 1.97c.492.95.585 2.032.262 3.05zM48.444 54.75l-12.028 3.809 8.562 2.712a1.335 1.335 0 0 0 1.675-.868zm2.593-5.018L36.421 3.598a1.334 1.334 0 0 0-1.673-.869L3.6 12.595c-.34.107-.617.34-.781.657a1.325 1.325 0 0 0-.088 1.017l14.616 46.133c.222.701.973 1.09 1.674.869l12.54-3.972c.028-.01.056-.02.085-.027l18.523-5.867c.34-.107.617-.34.78-.657.165-.316.196-.677.088-1.017zm-2.54-16.847l4.949-15.62-11.001-3.484zM61.18 13.25a1.324 1.324 0 0 0-.78-.656L40.023 6.14l1.446 4.561c.088.01.176.028.263.056l12.518 3.965a2.65 2.65 0 0 1 1.561 1.313 2.65 2.65 0 0 1 .176 2.034l-6.092 19.228 2.038 6.434 9.335-29.464c.107-.34.076-.7-.088-1.017zm-30.24 10.086a4.892 4.892 0 0 1 2.427 2.884 4.606 4.606 0 0 1-.513 3.885l-3.213 5.021a2.76 2.76 0 0 1-2.317 1.268c-.354 0-.708-.068-1.04-.204l-5.519-2.254a4.606 4.606 0 0 1-2.656-2.881 4.891 4.891 0 0 1 .323-3.755 4.893 4.893 0 0 1 2.884-2.427 4.949 4.949 0 0 1 3.262.104 4.947 4.947 0 0 1 2.607-1.964 4.896 4.896 0 0 1 3.755.323zm-.115 3.689a2.245 2.245 0 0 0-1.113-1.322 2.242 2.242 0 0 0-1.722-.148 2.244 2.244 0 0 0-1.514 1.63 1.335 1.335 0 0 1-2.178.69 2.246 2.246 0 0 0-2.177-.46A2.242 2.242 0 0 0 20.8 28.53a2.243 2.243 0 0 0-.148 1.722c.175.553.585.997 1.123 1.217l5.518 2.254a.079.079 0 0 0 .058.002.081.081 0 0 0 .045-.034l3.213-5.022c.314-.49.393-1.088.217-1.642zm13.347 13.907a2.648 2.648 0 0 1-.175 2.033 2.649 2.649 0 0 1-1.562 1.314L21.24 50.994a2.671 2.671 0 0 1-3.347-1.737L8.013 18.07a2.649 2.649 0 0 1 .175-2.034 2.65 2.65 0 0 1 1.561-1.313l21.196-6.714a2.67 2.67 0 0 1 3.348 1.737zm-2.542.805l-9.88-31.186-9.772 3.094-11.425 3.619 9.88 31.186z"/></g></g></svg>