<svg xmlns="http://www.w3.org/2000/svg" width="65" height="65" viewBox="0 0 65 65"><g><g><path fill="#3172b9" d="M63.131 51.506a6.393 6.393 0 0 1 0 9.031L60.54 63.13A6.345 6.345 0 0 1 56.023 65a6.344 6.344 0 0 1-4.516-1.87L30.988 42.613l-2.862 2.862a6.344 6.344 0 0 1-1.85 5.026l-2.726 2.726a6.345 6.345 0 0 1-4.516 1.87 6.344 6.344 0 0 1-4.515-1.87L1.865 40.575a6.392 6.392 0 0 1 0-9.03l2.726-2.726a6.345 6.345 0 0 1 5.026-1.85L26.97 9.619a6.373 6.373 0 0 1 1.848-5.024l2.725-2.725A6.346 6.346 0 0 1 36.058 0c1.706 0 3.31.664 4.516 1.87l12.653 12.652a6.393 6.393 0 0 1 0 9.03l-2.725 2.726a6.346 6.346 0 0 1-5.027 1.85l-2.862 2.862zM31.164 35.784l4.619-4.619 3.46-3.46 5.155-5.154.4.4c.328.328.758.492 1.188.492.43 0 .86-.164 1.189-.492l2.725-2.725a1.68 1.68 0 0 0 0-2.376L37.246 5.197a1.676 1.676 0 0 0-1.188-.492c-.43 0-.86.164-1.188.492l-2.726 2.725a1.68 1.68 0 0 0 0 2.377l.4.4-21.85 21.847-.4-.4a1.676 1.676 0 0 0-1.188-.492c-.43 0-.86.164-1.188.492L5.193 34.87a1.68 1.68 0 0 0 0 2.376L17.846 49.9c.328.328.758.492 1.188.492.43 0 .86-.164 1.189-.492l2.725-2.725a1.68 1.68 0 0 0 0-2.377l-.4-.4 5.155-5.154zm28.64 19.05L39.285 34.317l-4.97 4.97 20.52 20.516c.327.328.758.492 1.188.492.43 0 .86-.164 1.188-.492l2.593-2.593a1.68 1.68 0 0 0 0-2.376z"/></g></g></svg>