<svg width="16" height="16" viewBox="0 0 16 16" xmlns="http://www.w3.org/2000/svg">
<path d="M13.7859 11.136C12.8194 10.3093 11.8384 9.80855 10.8838 10.634L10.3137 11.1329C9.8966 11.495 9.1211 13.1871 6.12278 9.73799C3.12508 6.29323 4.90897 5.75688 5.32668 5.39785L5.89987 4.89834C6.84957 4.07102 6.49117 3.02954 5.80622 1.95746L5.39287 1.3081C4.70479 0.238516 3.95552 -0.463923 3.00333 0.362146L2.48883 0.811707C2.06799 1.11828 0.891641 2.11481 0.606295 4.00796C0.26288 6.27949 1.3462 8.8807 3.82815 11.7348C6.30698 14.5901 8.73398 16.0244 11.033 15.9994C12.9436 15.9788 14.0975 14.9535 14.4584 14.5808L14.9748 14.1306C15.9245 13.3051 15.3344 12.4647 14.3672 11.6361L13.7859 11.136Z"/>
</svg>
