<svg width="16" height="16" viewBox="0 0 16 16" xmlns="http://www.w3.org/2000/svg">
<path d="M0.282622 7.71431L3.96934 9.09031L5.39633 13.6795C5.48763 13.9734 5.84705 14.082 6.08561 13.887L8.14065 12.2117C8.35606 12.0362 8.66289 12.0274 8.88801 12.1908L12.5946 14.8819C12.8498 15.0674 13.2113 14.9275 13.2753 14.6192L15.9906 1.55831C16.0604 1.22146 15.7294 0.940445 15.4087 1.0645L0.278302 6.90135C-0.0950842 7.04535 -0.0918309 7.57399 0.282622 7.71431ZM5.16636 8.35783L12.3716 3.92012C12.5011 3.8406 12.6343 4.0157 12.5231 4.11884L6.5767 9.64631C6.36769 9.84087 6.23286 10.1012 6.19467 10.3839L5.99211 11.885C5.96529 12.0854 5.68374 12.1053 5.62843 11.9113L4.8494 9.17399C4.76017 8.86178 4.89019 8.52828 5.16636 8.35783Z"/>
</svg>
