<svg width="18" height="18" viewBox="0 0 18 18" xmlns="http://www.w3.org/2000/svg">
<g clip-path="url(#clip0_523_703)">
<path d="M15.3975 7.55355C15.4192 5.01578 13.2577 2.6893 10.5794 2.36759C10.5261 2.36128 10.4681 2.35166 10.4066 2.34149C10.274 2.31952 10.1369 2.29694 9.99855 2.29694C9.44961 2.29694 9.30287 2.68254 9.26424 2.91251C9.22668 3.13612 9.26251 3.32389 9.37056 3.47085C9.55235 3.71804 9.87222 3.76192 10.1291 3.79709C10.2044 3.80748 10.2755 3.81715 10.335 3.83051C12.7414 4.36822 13.5517 5.21361 13.9477 7.59956C13.9573 7.65786 13.9617 7.72969 13.9663 7.80589C13.9836 8.09109 14.0196 8.68448 14.6575 8.68448H14.6576C14.7107 8.68448 14.7678 8.67989 14.8272 8.67084C15.4212 8.58056 15.4026 8.03815 15.3937 7.77755C15.3912 7.70415 15.3888 7.63472 15.395 7.58855C15.3967 7.57692 15.3975 7.56524 15.3975 7.55355Z"/>
<path d="M9.84283 1.43598C9.9141 1.44112 9.98157 1.44604 10.0378 1.45465C13.9893 2.06234 15.8066 3.93457 16.3102 7.91704C16.3187 7.98473 16.3201 8.0673 16.3215 8.15473C16.3265 8.46587 16.3369 9.11314 17.032 9.12656L17.0536 9.12678C17.2716 9.12678 17.445 9.06104 17.569 8.93124C17.7854 8.7049 17.7703 8.36866 17.7581 8.09843C17.7552 8.03214 17.7523 7.9697 17.753 7.91502C17.8033 3.84199 14.2776 0.148584 10.2082 0.011236C10.1914 0.010677 10.1753 0.0115714 10.159 0.0138634C10.151 0.0150373 10.1362 0.0164907 10.1108 0.0164907C10.0702 0.0164907 10.0203 0.0129689 9.96737 0.0093913C9.90337 0.00503106 9.83081 0 9.75724 0C9.10919 0 8.98598 0.460621 8.97022 0.735205C8.93388 1.36979 9.54778 1.41445 9.84283 1.43598Z"/>
<path d="M16.1195 13.0644C16.0355 13.0002 15.9486 12.9338 15.8673 12.8683C15.4358 12.5211 14.9768 12.201 14.5329 11.8915C14.4408 11.8273 14.3487 11.7631 14.2569 11.6987C13.6883 11.2993 13.177 11.1052 12.6941 11.1052C12.0436 11.1052 11.4764 11.4647 11.0083 12.1734C10.8009 12.4876 10.5493 12.6404 10.2392 12.6404C10.0558 12.6404 9.8475 12.5881 9.62004 12.4848C7.78465 11.6525 6.47406 10.3764 5.7246 8.69199C5.36231 7.87786 5.47976 7.34568 6.11736 6.91256C6.47943 6.66683 7.15337 6.20933 7.10563 5.33326C7.05157 4.3384 4.85647 1.34497 3.93159 1.00499C3.54001 0.860987 3.12858 0.859645 2.70653 1.00163C1.6433 1.35906 0.88031 1.98677 0.499851 2.81678C0.132192 3.61879 0.148795 4.56049 0.547869 5.54009C1.70155 8.37235 3.32356 10.8417 5.36902 12.8795C7.37116 14.8742 9.83196 16.5082 12.683 17.7358C12.94 17.8464 13.2095 17.9067 13.4064 17.9507C13.4734 17.9658 13.5313 17.9787 13.5736 17.9902C13.5968 17.9965 13.6207 17.9999 13.6447 18.0002L13.6672 18.0003C13.6672 18.0003 13.6672 18.0003 13.6673 18.0003C15.0082 18.0003 16.6183 16.7749 17.1128 15.378C17.5461 14.1548 16.7551 13.5501 16.1195 13.0644Z"/>
<path d="M10.4359 4.67099C10.2063 4.6768 9.72853 4.68866 9.56088 5.17527C9.48245 5.40267 9.49185 5.60011 9.58883 5.76211C9.73116 5.9998 10.0038 6.07264 10.2519 6.11261C11.1514 6.25695 11.6133 6.75435 11.7057 7.67783C11.7487 8.10843 12.0386 8.40912 12.4109 8.40912H12.411C12.4385 8.40912 12.4666 8.4075 12.4946 8.40409C12.9424 8.35081 13.1594 8.02184 13.1398 7.42639C13.147 6.80494 12.8217 6.09942 12.2686 5.53745C11.7136 4.97375 11.0445 4.65629 10.4359 4.67099Z"/>
</g>
<defs>
<clipPath id="clip0_523_703">
<rect width="18" height="18"/>
</clipPath>
</defs>
</svg>
