<svg width="18" height="18" viewBox="0 0 18 18" xmlns="http://www.w3.org/2000/svg">
<g clip-path="url(#clip0_523_648)">
<path fill-rule="evenodd" clip-rule="evenodd" d="M14.9692 3.00607C13.3904 1.42548 11.2908 0.554638 9.05406 0.553711C4.44495 0.553711 0.693806 4.30475 0.691952 8.9151C0.691334 10.3889 1.07634 11.8275 1.80813 13.0956L0.621811 17.4287L5.05469 16.2659C6.27613 16.9322 7.65125 17.2833 9.05067 17.2837H9.05417C13.6628 17.2837 17.4143 13.5323 17.4161 8.92179C17.417 6.68738 16.548 4.58655 14.9692 3.00607ZM9.05406 15.8715H9.05118C7.80409 15.871 6.58101 15.5358 5.51375 14.9027L5.26007 14.752L2.62953 15.4421L3.33166 12.8774L3.16635 12.6144C2.47061 11.5078 2.10322 10.2288 2.10383 8.91561C2.10528 5.08361 5.2232 1.966 9.05685 1.966C10.9133 1.96662 12.6583 2.69048 13.9705 4.00421C15.2827 5.31793 16.0049 7.06414 16.0043 8.92128C16.0026 12.7536 12.8849 15.8715 9.05406 15.8715ZM12.8664 10.6661C12.6575 10.5615 11.6302 10.0562 11.4386 9.98637C11.2473 9.91664 11.1078 9.88193 10.9687 10.091C10.8293 10.3001 10.429 10.7708 10.307 10.9101C10.1851 11.0496 10.0633 11.0671 9.85435 10.9625C9.64537 10.8579 8.97218 10.6372 8.17406 9.92539C7.55299 9.37137 7.13369 8.68716 7.01174 8.47808C6.89 8.26879 7.01071 8.16662 7.10341 8.05167C7.32959 7.7708 7.55608 7.47633 7.6257 7.33698C7.69543 7.19752 7.66052 7.07547 7.60819 6.97093C7.55608 6.86639 7.13822 5.83796 6.96415 5.41949C6.79442 5.01224 6.62231 5.06724 6.49397 5.06085C6.37223 5.05477 6.23288 5.05354 6.09352 5.05354C5.95427 5.05354 5.72788 5.10576 5.53631 5.31505C5.34484 5.52423 4.80513 6.02964 4.80513 7.05806C4.80513 8.08649 5.55382 9.07999 5.65826 9.21945C5.7627 9.35891 7.13163 11.4693 9.22751 12.3742C9.72602 12.5897 10.1151 12.7181 10.4187 12.8145C10.9192 12.9735 11.3746 12.951 11.7347 12.8973C12.1361 12.8372 12.9707 12.3918 13.145 11.9038C13.3191 11.4157 13.3191 10.9974 13.2667 10.9101C13.2146 10.823 13.0753 10.7708 12.8664 10.6661Z"/>
</g>
<defs>
<clipPath id="clip0_523_648">
<rect width="18" height="18"/>
</clipPath>
</defs>
</svg>
