<svg xmlns="http://www.w3.org/2000/svg" width="143" height="144" viewBox="0 0 143 144"><defs><clipPath id="540ua"><path fill="#fff" d="M38 106V38h67v68zm2.25-33.625c0 17.38 14.012 31.469 31.297 31.469s31.297-14.09 31.297-31.47c0-17.379-14.012-31.468-31.297-31.468S40.25 54.996 40.25 72.375z"/></clipPath></defs><g><g><path fill="#414141" d="M71.547 40.906c17.285 0 31.297 14.09 31.297 31.469 0 17.38-14.012 31.469-31.297 31.469S40.25 89.754 40.25 72.374c0-17.379 14.012-31.468 31.297-31.468z"/><path fill="none" stroke="#3172b9" stroke-miterlimit="20" stroke-width="4" d="M71.547 40.906c17.285 0 31.297 14.09 31.297 31.469 0 17.38-14.012 31.469-31.297 31.469S40.25 89.754 40.25 72.374c0-17.379 14.012-31.468 31.297-31.468z" clip-path="url(&quot;#540ua&quot;)"/></g></g></svg>