<svg width="16" height="16" viewBox="0 0 16 16" xmlns="http://www.w3.org/2000/svg">
<path d="M5.71958 3.08766C5.71958 2.98792 5.73343 2.77252 5.76114 2.44284C5.79092 2.11246 5.91559 1.76685 6.1393 1.40392C6.36094 1.04238 6.7204 0.717545 7.22047 0.430111C7.71845 0.144063 8.43808 0 9.37726 0H12.023V2.88334H10.0858C9.89394 2.88334 9.71525 2.95537 9.55387 3.09736C9.39388 3.23934 9.31146 3.3744 9.31146 3.49976V5.29362H12.0223C11.9939 5.64478 11.9628 5.98624 11.9268 6.31592L11.8194 7.18722C11.7765 7.48158 11.7328 7.75447 11.6899 8.00589H9.29207V16H5.71958V8.00519H3.97697V5.29362H5.71958V3.08766Z"/>
</svg>

