<svg width="16" height="16" viewBox="0 0 16 16" xmlns="http://www.w3.org/2000/svg">
<g clip-path="url(#clip0_25_143)">
<path d="M15.8574 11.5781C15.8144 11.5061 15.5484 10.928 14.2683 9.73995C12.9282 8.49585 13.1082 8.69787 14.7223 6.54671C15.7054 5.23661 16.0984 4.43655 15.9754 4.09453C15.8584 3.7685 15.1353 3.85451 15.1353 3.85451L12.7312 3.86851C12.7312 3.86851 12.5531 3.84451 12.4201 3.92352C12.2911 4.00152 12.2081 4.18153 12.2081 4.18153C12.2081 4.18153 11.8271 5.19561 11.3191 6.05767C10.248 7.87681 9.81894 7.97282 9.64393 7.85981C9.2369 7.59679 9.33891 6.80173 9.33891 6.23769C9.33891 4.47456 9.60593 3.7395 8.81787 3.54949C8.55585 3.48648 8.36384 3.44448 7.69479 3.43748C6.83672 3.42848 6.10967 3.44048 5.69864 3.64149C5.42462 3.7755 5.2136 4.07453 5.34261 4.09153C5.50162 4.11253 5.86165 4.18854 6.05267 4.44855C6.29968 4.78358 6.29068 5.53764 6.29068 5.53764C6.29068 5.53764 6.43269 7.61279 5.95966 7.87081C5.63463 8.04782 5.1896 7.68679 4.23453 6.03567C3.74549 5.19061 3.37547 4.25554 3.37547 4.25554C3.37547 4.25554 3.30446 4.08153 3.17745 3.98852C3.02344 3.87551 2.80742 3.83951 2.80742 3.83951L0.521254 3.85351C0.521254 3.85351 0.178229 3.86351 0.0522195 4.01252C-0.0597888 4.14553 0.0432188 4.41955 0.0432188 4.41955C0.0432188 4.41955 1.83335 8.60686 3.8595 10.718C5.71864 12.6532 7.8288 12.5262 7.8288 12.5262H8.78487C8.78487 12.5262 9.07389 12.4942 9.2209 12.3351C9.35691 12.1891 9.35191 11.9151 9.35191 11.9151C9.35191 11.9151 9.33291 10.632 9.92895 10.443C10.516 10.257 11.2701 11.6831 12.0691 12.2321C12.6732 12.6472 13.1322 12.5562 13.1322 12.5562L15.2694 12.5262C15.2694 12.5262 16.3874 12.4571 15.8574 11.5781Z"/>
</g>
<defs>
<clipPath id="clip0_25_143">
<rect width="16" height="16"/>
</clipPath>
</defs>
</svg>
