<svg width="16" height="16" viewBox="0 0 16 16" xmlns="http://www.w3.org/2000/svg">
<path d="M15.1831 11.7492C15.0103 12.3918 14.5036 12.8983 13.8611 13.0714C12.6873 13.3925 7.992 13.3925 7.992 13.3925C7.992 13.3925 3.2969 13.3925 2.12311 13.0836C1.49295 12.9107 0.973936 12.3917 0.801084 11.7492C0.492186 10.5755 0.492186 8.14136 0.492186 8.14136C0.492186 8.14136 0.492186 5.69498 0.801084 4.53354C0.974119 3.89103 1.48059 3.38446 2.1232 3.21143C3.30926 2.89017 7.99218 2.89017 7.99218 2.89017C7.99218 2.89017 12.6873 2.89017 13.8611 3.19916C14.5037 3.3721 15.0103 3.87867 15.1833 4.52118C15.4921 5.69498 15.4921 8.129 15.4921 8.129C15.4921 8.129 15.5045 10.5755 15.1831 11.7492ZM6.49713 5.89264V10.3901L10.4015 8.14136L6.49713 5.89264Z"/>
</svg>
